<svg width="9" height="13" viewBox="0 0 9 13" fill="none" xmlns="http://www.w3.org/2000/svg">
<path d="M8.81677 9.544C8.81677 10.66 8.46277 11.518 7.75477 12.118C7.05877 12.706 6.14677 13 5.01877 13H1.18477C1.12477 13 1.07077 12.982 1.02277 12.946C0.986773 12.898 0.968773 12.844 0.968773 12.784V0.616C0.968773 0.556 0.986773 0.508 1.02277 0.471999C1.07077 0.423999 1.12477 0.399999 1.18477 0.399999H4.80277C6.01477 0.399999 6.95677 0.687999 7.62877 1.264C8.31277 1.828 8.65477 2.674 8.65477 3.802C8.65477 5.038 8.16877 5.914 7.19677 6.43C7.13677 6.466 7.13077 6.502 7.17877 6.538C8.27077 7.126 8.81677 8.128 8.81677 9.544ZM3.14677 2.2C3.08677 2.2 3.05677 2.23 3.05677 2.29V5.638C3.05677 5.698 3.08677 5.728 3.14677 5.728H4.82077C5.38477 5.728 5.82277 5.578 6.13477 5.278C6.45877 4.966 6.62077 4.534 6.62077 3.982C6.62077 3.418 6.45877 2.98 6.13477 2.668C5.82277 2.356 5.38477 2.2 4.82077 2.2H3.14677ZM4.94677 11.182C5.49877 11.182 5.93077 11.014 6.24277 10.678C6.56677 10.342 6.72877 9.874 6.72877 9.274C6.72877 8.674 6.56677 8.206 6.24277 7.87C5.91877 7.522 5.48077 7.348 4.92877 7.348H3.14677C3.08677 7.348 3.05677 7.378 3.05677 7.438V11.092C3.05677 11.152 3.08677 11.182 3.14677 11.182H4.94677Z" fill="#3D5A9A"/>
</svg>
