<svg width="10" height="10" viewBox="0 0 10 10" fill="none" xmlns="http://www.w3.org/2000/svg">
<path d="M1.2849 8.88886C1.52031 9.12113 1.79998 9.30528 2.10785 9.43073C2.41572 9.55617 2.74572 9.62045 3.07888 9.61986C3.41211 9.62043 3.74218 9.55615 4.05013 9.43071C4.35808 9.30526 4.63784 9.12112 4.87336 8.88886L6.30855 7.47436L5.59096 6.76736L4.15577 8.18186C3.86979 8.46236 3.48267 8.61984 3.07913 8.61984C2.67559 8.61984 2.28847 8.46236 2.00249 8.18186C1.71753 7.90022 1.55752 7.51877 1.55752 7.12111C1.55752 6.72344 1.71753 6.34199 2.00249 6.06036L3.43818 4.64636L2.72059 3.93936L1.2849 5.35336C0.809786 5.82259 0.542969 6.45832 0.542969 7.12111C0.542969 7.7839 0.809786 8.41963 1.2849 8.88886ZM9.17942 4.64636C9.65429 4.177 9.92093 3.54132 9.92093 2.87861C9.92093 2.2159 9.65429 1.58022 9.17942 1.11086C8.70317 0.642762 8.05791 0.379883 7.38519 0.379883C6.71247 0.379883 6.06721 0.642762 5.59096 1.11086L4.15577 2.52536L4.87336 3.23236L6.30855 1.81786C6.59453 1.53735 6.98165 1.37987 7.38519 1.37987C7.78873 1.37987 8.17585 1.53735 8.46183 1.81786C8.74679 2.09949 8.9068 2.48094 8.9068 2.87861C8.9068 3.27628 8.74679 3.65772 8.46183 3.93936L7.02614 5.35336L7.74373 6.06036L9.17942 4.64636Z" fill="#3D5A9A"/>
</svg>
