<svg width="9" height="14" viewBox="0 0 9 14" fill="none" xmlns="http://www.w3.org/2000/svg">
<path d="M4.41513 13.144C3.63513 13.144 2.94513 12.982 2.34513 12.658C1.74513 12.334 1.27713 11.878 0.941133 11.29C0.617133 10.69 0.455133 10 0.455133 9.22V0.616C0.455133 0.556 0.473133 0.508 0.509133 0.471999C0.557133 0.423999 0.611133 0.399999 0.671133 0.399999H2.32713C2.38713 0.399999 2.43513 0.423999 2.47113 0.471999C2.51913 0.508 2.54313 0.556 2.54313 0.616V9.328C2.54313 9.928 2.71113 10.414 3.04713 10.786C3.39513 11.158 3.85113 11.344 4.41513 11.344C4.97913 11.344 5.43513 11.158 5.78313 10.786C6.13113 10.414 6.30513 9.928 6.30513 9.328V0.616C6.30513 0.556 6.32313 0.508 6.35913 0.471999C6.40713 0.423999 6.46113 0.399999 6.52113 0.399999H8.17713C8.23713 0.399999 8.28513 0.423999 8.32113 0.471999C8.36913 0.508 8.39313 0.556 8.39313 0.616V9.22C8.39313 10 8.22513 10.69 7.88913 11.29C7.56513 11.878 7.10313 12.334 6.50313 12.658C5.90313 12.982 5.20713 13.144 4.41513 13.144Z" fill="#3D5A9A"/>
</svg>
